<svg width="47" height="19" viewBox="0 0 47 19" fill="none" xmlns="http://www.w3.org/2000/svg">
<rect width="46.5" height="19" fill="#C74817"/>
<path d="M15.4496 14H12.9486L8.91153 6.97949H8.8544C8.87133 7.27148 8.88614 7.56559 8.89884 7.86182C8.91153 8.15804 8.92423 8.45426 8.93692 8.75049C8.94962 9.04248 8.96231 9.33659 8.97501 9.63281V14H7.21671V4.71973H9.69864L13.7294 11.6704H13.7738C13.7654 11.3826 13.7548 11.097 13.7421 10.8135C13.7294 10.5299 13.7167 10.2464 13.704 9.96289C13.6955 9.67936 13.6871 9.39583 13.6786 9.1123V4.71973H15.4496V14ZM25.0866 14H19.7419V4.71973H25.0866V6.33203H21.7097V8.36963H24.8518V9.98193H21.7097V12.375H25.0866V14ZM40.3794 4.71973L38.0181 14H35.7774L34.5205 9.125C34.4951 9.0319 34.4613 8.89014 34.419 8.69971C34.3766 8.50928 34.3322 8.30192 34.2857 8.07764C34.2391 7.84912 34.1968 7.63542 34.1587 7.43652C34.1248 7.2334 34.1016 7.07259 34.0889 6.9541C34.0762 7.07259 34.0508 7.23128 34.0127 7.43018C33.9788 7.62907 33.9386 7.84066 33.8921 8.06494C33.8498 8.28923 33.8075 8.4987 33.7651 8.69336C33.7228 8.88802 33.689 9.03613 33.6636 9.1377L32.4131 14H30.1787L27.811 4.71973H29.7471L30.9341 9.78516C30.9679 9.9375 31.006 10.1195 31.0483 10.3311C31.0949 10.5426 31.1393 10.7648 31.1816 10.9976C31.2282 11.2261 31.2684 11.4482 31.3023 11.6641C31.3403 11.8757 31.3678 12.0597 31.3848 12.2163C31.4059 12.0555 31.4334 11.8693 31.4673 11.6577C31.5011 11.4419 31.5371 11.224 31.5752 11.0039C31.6175 10.7796 31.6598 10.5723 31.7022 10.3818C31.7445 10.1914 31.7826 10.0369 31.8164 9.91846L33.1685 4.71973H35.0283L36.3804 9.91846C36.41 10.0327 36.4439 10.1872 36.4819 10.3818C36.5243 10.5723 36.5666 10.7796 36.6089 11.0039C36.6512 11.2282 36.6893 11.4482 36.7232 11.6641C36.7612 11.8757 36.7887 12.0597 36.8057 12.2163C36.8353 12.0047 36.8755 11.7487 36.9263 11.4482C36.9813 11.1436 37.0384 10.841 37.0977 10.5405C37.1611 10.2401 37.2162 9.98828 37.2627 9.78516L38.4434 4.71973H40.3794Z" fill="white"/>
</svg>
