<svg width="15" height="13" viewBox="0 0 15 13" fill="none" xmlns="http://www.w3.org/2000/svg">
<path d="M13.3346 2.67485H11.5641L9.48628 0.582418C9.20826 0.319035 8.78392 0.319035 8.50591 0.582418C8.24252 0.860434 8.24252 1.28477 8.50591 1.56279L9.61797 2.67485H5.62332L6.73539 1.56279C6.99877 1.28477 6.99877 0.860434 6.73539 0.582418C6.472 0.319035 6.03303 0.319035 5.76965 0.582418L3.67722 2.67485H1.9067C1.14581 2.67485 0.53125 3.28941 0.53125 4.0503V6.09883C0.53125 6.47928 0.83853 6.78656 1.21897 6.78656H1.54089L2.21398 11.1177C2.34567 12.0542 3.15045 12.7419 4.10156 12.7273H11.1544C12.0908 12.7419 12.8956 12.0542 13.0273 11.1177L13.7004 6.78656H14.0223C14.4028 6.78656 14.71 6.47928 14.71 6.09883V4.0503C14.71 3.28941 14.0955 2.67485 13.3346 2.67485ZM1.9067 5.41111V4.0503H13.3346V5.41111H1.9067ZM12.3103 6.78656L11.6811 10.9129C11.6372 11.1763 11.4178 11.3665 11.1544 11.3665H4.10156C3.83817 11.3665 3.60405 11.1763 3.57479 10.9129L2.93096 6.78656H12.3103ZM5.11119 9.75693V8.39612C5.11119 8.01568 5.41847 7.7084 5.79891 7.7084C6.16472 7.7084 6.472 8.01568 6.472 8.39612V9.75693C6.472 10.1374 6.16472 10.4447 5.79891 10.4447C5.41847 10.4447 5.11119 10.1374 5.11119 9.75693ZM8.30105 9.75693V8.39612C8.30105 8.01568 8.60833 7.7084 8.98878 7.7084C9.36922 7.7084 9.6765 8.01568 9.6765 8.39612V9.75693C9.6765 10.1374 9.36922 10.4447 8.98878 10.4447C8.60833 10.4447 8.30105 10.1374 8.30105 9.75693Z" fill="#131313"/>
</svg>
