<svg width="31" height="26" viewBox="0 0 31 26" fill="none" xmlns="http://www.w3.org/2000/svg">
<path d="M19.4974 7.82167H16.8757L13.7991 4.72334C13.3874 4.33334 12.7591 4.33334 12.3474 4.72334C11.9574 5.135 11.9574 5.76334 12.3474 6.175L13.9941 7.82167H8.07906L9.72573 6.175C10.1157 5.76334 10.1157 5.135 9.72573 4.72334C9.33573 4.33334 8.68573 4.33334 8.29573 4.72334L5.1974 7.82167H2.57573C1.44906 7.82167 0.539062 8.73167 0.539062 9.85834V12.8917C0.539062 13.455 0.994062 13.91 1.5574 13.91H2.03406L3.03073 20.3233C3.22573 21.71 4.4174 22.7283 5.82573 22.7067H16.2691C17.6557 22.7283 18.8474 21.71 19.0424 20.3233L20.0391 13.91H20.5157C21.0791 13.91 21.5341 13.455 21.5341 12.8917V9.85834C21.5341 8.73167 20.6241 7.82167 19.4974 7.82167ZM2.57573 11.8733V9.85834H19.4974V11.8733H2.57573ZM17.9807 13.91L17.0491 20.02C16.9841 20.41 16.6591 20.6917 16.2691 20.6917H5.82573C5.43573 20.6917 5.08906 20.41 5.04573 20.02L4.0924 13.91H17.9807ZM7.32073 18.3083V16.2933C7.32073 15.73 7.77573 15.275 8.33906 15.275C8.88073 15.275 9.33573 15.73 9.33573 16.2933V18.3083C9.33573 18.8717 8.88073 19.3267 8.33906 19.3267C7.77573 19.3267 7.32073 18.8717 7.32073 18.3083ZM12.0441 18.3083V16.2933C12.0441 15.73 12.4991 15.275 13.0624 15.275C13.6257 15.275 14.0807 15.73 14.0807 16.2933V18.3083C14.0807 18.8717 13.6257 19.3267 13.0624 19.3267C12.4991 19.3267 12.0441 18.8717 12.0441 18.3083Z" fill="#5B5858"/>
<rect x="16.4062" y="2.5" width="14" height="14" rx="7" fill="#C74817"/>
<path d="M26.2455 9.57373C26.2455 10.2075 26.1954 10.7733 26.0951 11.271C25.9984 11.7687 25.8409 12.1912 25.6225 12.5386C25.4076 12.8859 25.1247 13.1509 24.7738 13.3335C24.4229 13.5161 23.9968 13.6074 23.4955 13.6074C22.8653 13.6074 22.3479 13.4481 21.9433 13.1294C21.5386 12.8071 21.2396 12.3452 21.0463 11.7437C20.8529 11.1385 20.7562 10.4152 20.7562 9.57373C20.7562 8.7251 20.844 8 21.0194 7.39844C21.1985 6.79329 21.4885 6.32959 21.8896 6.00732C22.2906 5.68506 22.8259 5.52393 23.4955 5.52393C24.1221 5.52393 24.6378 5.68506 25.0424 6.00732C25.4506 6.32601 25.7532 6.78792 25.9501 7.39307C26.147 7.99463 26.2455 8.72152 26.2455 9.57373ZM22.4052 9.57373C22.4052 10.1717 22.4374 10.6712 22.5019 11.0723C22.5699 11.4697 22.6827 11.7687 22.8402 11.9692C22.9978 12.1698 23.2162 12.27 23.4955 12.27C23.7712 12.27 23.9879 12.1715 24.1454 11.9746C24.3065 11.7741 24.4211 11.4751 24.4892 11.0776C24.5572 10.6766 24.5912 10.1753 24.5912 9.57373C24.5912 8.97575 24.5572 8.47624 24.4892 8.0752C24.4211 7.67415 24.3065 7.37337 24.1454 7.17285C23.9879 6.96875 23.7712 6.8667 23.4955 6.8667C23.2162 6.8667 22.9978 6.96875 22.8402 7.17285C22.6827 7.37337 22.5699 7.67415 22.5019 8.0752C22.4374 8.47624 22.4052 8.97575 22.4052 9.57373Z" fill="white"/>
</svg>
