<svg width="36" height="37" viewBox="0 0 36 37" fill="none" xmlns="http://www.w3.org/2000/svg">
<rect y="0.09375" width="36" height="36" rx="18" fill="#C74817"/>
<path d="M17.6 14.207C15.35 14.207 13.557 16.0352 13.557 18.25C13.557 20.5 15.35 22.293 17.6 22.293C19.8148 22.293 21.643 20.5 21.643 18.25C21.643 16.0352 19.8148 14.207 17.6 14.207ZM17.6 20.8867C16.1586 20.8867 14.9633 19.7266 14.9633 18.25C14.9633 16.8086 16.1234 15.6484 17.6 15.6484C19.0414 15.6484 20.2016 16.8086 20.2016 18.25C20.2016 19.7266 19.0414 20.8867 17.6 20.8867ZM22.7328 14.0664C22.7328 13.5391 22.3109 13.1172 21.7836 13.1172C21.2563 13.1172 20.8344 13.5391 20.8344 14.0664C20.8344 14.5938 21.2563 15.0156 21.7836 15.0156C22.3109 15.0156 22.7328 14.5938 22.7328 14.0664ZM25.4047 15.0156C25.3344 13.75 25.0531 12.625 24.1391 11.7109C23.225 10.7969 22.1 10.5156 20.8344 10.4453C19.5336 10.375 15.6313 10.375 14.3305 10.4453C13.0648 10.5156 11.975 10.7969 11.0258 11.7109C10.1117 12.625 9.83047 13.75 9.76016 15.0156C9.68984 16.3164 9.68984 20.2188 9.76016 21.5195C9.83047 22.7852 10.1117 23.875 11.0258 24.8242C11.975 25.7383 13.0648 26.0195 14.3305 26.0898C15.6313 26.1602 19.5336 26.1602 20.8344 26.0898C22.1 26.0195 23.225 25.7383 24.1391 24.8242C25.0531 23.875 25.3344 22.7852 25.4047 21.5195C25.475 20.2188 25.475 16.3164 25.4047 15.0156ZM23.7172 22.8906C23.4711 23.5938 22.9086 24.1211 22.2406 24.4023C21.1859 24.8242 18.725 24.7188 17.6 24.7188C16.4398 24.7188 13.9789 24.8242 12.9594 24.4023C12.2563 24.1211 11.7289 23.5938 11.4477 22.8906C11.0258 21.8711 11.1313 19.4102 11.1313 18.25C11.1313 17.125 11.0258 14.6641 11.4477 13.6094C11.7289 12.9414 12.2563 12.4141 12.9594 12.1328C13.9789 11.7109 16.4398 11.8164 17.6 11.8164C18.725 11.8164 21.1859 11.7109 22.2406 12.1328C22.9086 12.3789 23.4359 12.9414 23.7172 13.6094C24.1391 14.6641 24.0336 17.125 24.0336 18.25C24.0336 19.4102 24.1391 21.8711 23.7172 22.8906Z" fill="white"/>
</svg>
