<svg width="36" height="37" viewBox="0 0 36 37" fill="none" xmlns="http://www.w3.org/2000/svg">
<rect y="0.09375" width="36" height="36" rx="18" fill="#C74817"/>
<path d="M24.7367 14.5938C25.4398 14.0664 26.0727 13.4336 26.5648 12.6953C25.932 12.9766 25.1938 13.1875 24.4555 13.2578C25.2289 12.8008 25.7914 12.0977 26.0727 11.2188C25.3695 11.6406 24.5609 11.957 23.7523 12.1328C23.0492 11.3945 22.1 10.9727 21.0453 10.9727C19.0063 10.9727 17.3539 12.625 17.3539 14.6641C17.3539 14.9453 17.3891 15.2266 17.4594 15.5078C14.4008 15.332 11.6586 13.8555 9.83047 11.6406C9.51406 12.168 9.33828 12.8008 9.33828 13.5039C9.33828 14.7695 9.97109 15.8945 10.9906 16.5625C10.393 16.5273 9.79531 16.3867 9.30313 16.1055V16.1406C9.30313 17.9336 10.5688 19.4102 12.2563 19.7617C11.975 19.832 11.6234 19.9023 11.307 19.9023C11.0609 19.9023 10.85 19.8672 10.6039 19.832C11.0609 21.3086 12.432 22.3633 14.0492 22.3984C12.7836 23.3828 11.2016 23.9805 9.47891 23.9805C9.1625 23.9805 8.88125 23.9453 8.6 23.9102C10.2172 24.9648 12.1508 25.5625 14.2602 25.5625C21.0453 25.5625 24.7367 19.9727 24.7367 15.0859C24.7367 14.9102 24.7367 14.7695 24.7367 14.5938Z" fill="white"/>
</svg>
